<svg width="15" height="14" viewBox="0 0 15 14" fill="none" xmlns="http://www.w3.org/2000/svg">
<path fill-rule="evenodd" clip-rule="evenodd" d="M12.0043 12.0923C11.9853 12.2913 11.9082 12.4803 11.7812 12.6343C11.6542 12.7893 11.4843 12.9013 11.2933 12.9583C11.1013 13.0153 10.8973 13.0133 10.7063 12.9533C10.5163 12.8933 10.3483 12.7773 10.2243 12.6203C9.13426 11.7543 7.43425 10.5063 7.43425 10.5063C7.43425 10.5063 6.20424 12.6733 5.98424 12.8953C5.91124 12.9563 5.82725 13.0013 5.73625 13.0283C5.64425 13.0543 5.54925 13.0613 5.45525 13.0493C5.36125 13.0363 5.27026 13.0043 5.18926 12.9553C5.10826 12.9063 5.03824 12.8403 4.98424 12.7623C4.97324 12.7283 4.95926 12.6943 4.94426 12.6623L5.63423 9.21033L10.5542 4.37732L3.84425 8.2063C3.84425 8.2063 0.814244 7.30029 0.364244 7.12329C0.248244 7.05929 0.152243 6.96431 0.0882428 6.84931C0.0242428 6.73331 -0.00676285 6.60234 0.00123715 6.47034C0.00823715 6.33834 0.0532584 6.21034 0.129258 6.10334C0.206258 5.99534 0.312251 5.91133 0.434251 5.86133C1.07425 5.53533 12.3642 1.22331 12.7442 1.11231C13.1242 1.00131 14.1242 0.712307 14.0142 1.68531C13.9042 2.65831 12.1143 11.5573 12.0043 12.0923Z" fill="#333333"/>
</svg>
