<svg width="15" height="16" viewBox="0 0 15 16" fill="none" xmlns="http://www.w3.org/2000/svg">
<path fill-rule="evenodd" clip-rule="evenodd" d="M7.5 15.9573C6.086 15.9533 4.70201 15.5483 3.51001 14.7873L0 15.9573L1.17001 12.4463C0.289013 11.0393 -0.100005 9.37927 0.0639954 7.72727C0.228995 6.07627 0.938994 4.52527 2.08099 3.32127C3.22299 2.11627 4.73299 1.32524 6.37399 1.07224C8.01499 0.819242 9.69299 1.11927 11.145 1.92527C12.596 2.73027 13.739 3.99524 14.393 5.52024C15.048 7.04624 15.176 8.74625 14.759 10.3532C14.342 11.9602 13.402 13.3823 12.088 14.3973C10.774 15.4113 9.16 15.9603 7.5 15.9573ZM9.13 9.59324C9.629 9.75424 10.136 9.88826 10.65 9.99326C10.704 10.0013 10.756 10.0203 10.802 10.0483C10.849 10.0773 10.89 10.1143 10.921 10.1593C10.953 10.2033 10.975 10.2532 10.987 10.3072C10.999 10.3602 11 10.4153 10.99 10.4693V10.7572C10.995 10.8602 10.976 10.9623 10.934 11.0563C10.893 11.1503 10.829 11.2332 10.75 11.2992C10.504 11.5492 10.212 11.7503 9.89001 11.8913C9.41501 11.9473 8.93399 11.9052 8.47699 11.7682C8.01899 11.6302 7.59501 11.4002 7.23001 11.0912C6.76001 10.7752 6.32101 10.4163 5.92001 10.0163C5.52101 9.61327 5.159 9.17424 4.84 8.70524C4.534 8.34024 4.30501 7.91627 4.17001 7.45927C4.03401 7.00327 3.99299 6.52327 4.04999 6.05027C4.19099 5.73027 4.39101 5.44025 4.64001 5.19425C4.70301 5.11325 4.78601 5.04928 4.88 5.00828C4.974 4.96628 5.07799 4.94923 5.17999 4.95823H5.47C5.579 4.94323 5.69002 4.97225 5.77802 5.03825C5.86702 5.10525 5.925 5.20427 5.94 5.31327C6.09 5.90527 6.20001 6.33327 6.35001 6.81327C6.41001 7.01327 6.33999 7.06125 6.17999 7.18125C6.07999 7.25825 6.00001 7.31427 5.92001 7.37327C5.87401 7.39327 5.832 7.42324 5.798 7.46024C5.764 7.49724 5.73798 7.54225 5.72198 7.59025C5.70599 7.63825 5.69999 7.68823 5.70499 7.73923C5.70999 7.78923 5.725 7.83824 5.75 7.88224C6.005 8.37324 6.332 8.82425 6.72 9.22025C7.115 9.60825 7.567 9.93423 8.06 10.1872C8.104 10.2112 8.153 10.2272 8.203 10.2312C8.253 10.2362 8.30399 10.2303 8.35199 10.2143C8.39999 10.1983 8.44399 10.1733 8.48199 10.1393C8.51899 10.1053 8.54901 10.0642 8.57001 10.0182C8.63001 9.93723 8.68001 9.86124 8.76001 9.75724C8.77201 9.72124 8.79199 9.68825 8.81799 9.66025C8.84299 9.63125 8.874 9.60924 8.909 9.59324C8.943 9.57724 8.98101 9.56824 9.01901 9.56724C9.05701 9.56624 9.09501 9.57228 9.13 9.58628V9.59324Z" fill="#3A3A3A"/>
</svg>
