<svg width="52" height="53" viewBox="0 0 52 53" fill="none" xmlns="http://www.w3.org/2000/svg">
<g clip-path="url(#clip0_573_26)">
<path d="M16.7703 41.7816C16.7705 41.4587 16.8988 41.149 17.1272 40.9206C17.3556 40.6922 17.6653 40.5638 17.9882 40.5636L35.7281 40.5622L12.5303 17.3644C12.3017 17.1358 12.1733 16.8258 12.1733 16.5026C12.1733 16.1793 12.3017 15.8693 12.5303 15.6408C12.7588 15.4122 13.0688 15.2838 13.3921 15.2838C13.7153 15.2838 14.0253 15.4122 14.2538 15.6408L37.4517 38.8386L37.4531 21.0988C37.4643 20.7832 37.5975 20.4842 37.8247 20.2649C38.0519 20.0456 38.3553 19.923 38.6711 19.923C38.9869 19.923 39.2904 20.0456 39.5176 20.2649C39.7448 20.4842 39.878 20.7832 39.8891 21.0988L39.8891 41.7816C39.8889 42.1046 39.7605 42.4143 39.5321 42.6427C39.3038 42.871 38.9941 42.9994 38.6711 42.9996L17.9882 42.9996C17.6653 42.9994 17.3556 42.871 17.1272 42.6427C16.8988 42.4143 16.7705 42.1046 16.7703 41.7816Z" fill="white"/>
</g>
<defs>
<clipPath id="clip0_573_26">
<rect width="52" height="52" fill="white" transform="translate(0 0.984863)"/>
</clipPath>
</defs>
</svg>
