<svg width="143" height="144" viewBox="0 0 143 144" fill="none" xmlns="http://www.w3.org/2000/svg">
<rect x="2.5" y="3.48486" width="138" height="138" rx="69" stroke="#FA6E37" stroke-width="5"/>
<rect x="33" y="33.9849" width="77" height="77" rx="38.5" fill="#232323"/>
<g clip-path="url(#clip0_204_16421)">
<path d="M62.7703 84.7816C62.7705 84.4587 62.8988 84.149 63.1272 83.9206C63.3556 83.6922 63.6653 83.5638 63.9882 83.5636L81.7281 83.5622L58.5303 60.3644C58.3017 60.1358 58.1733 59.8258 58.1733 59.5026C58.1733 59.1793 58.3017 58.8693 58.5303 58.6408C58.7588 58.4122 59.0688 58.2838 59.3921 58.2838C59.7153 58.2838 60.0253 58.4122 60.2538 58.6408L83.4517 81.8386L83.4531 64.0988C83.4643 63.7832 83.5975 63.4842 83.8247 63.2649C84.0519 63.0456 84.3553 62.923 84.6711 62.923C84.9869 62.923 85.2904 63.0456 85.5176 63.2649C85.7448 63.4842 85.878 63.7832 85.8891 64.0988L85.8891 84.7816C85.8889 85.1046 85.7605 85.4143 85.5321 85.6427C85.3038 85.871 84.9941 85.9994 84.6711 85.9996L63.9882 85.9996C63.6653 85.9994 63.3556 85.871 63.1272 85.6427C62.8988 85.4143 62.7705 85.1046 62.7703 84.7816Z" fill="white"/>
</g>
<defs>
<clipPath id="clip0_204_16421">
<rect width="52" height="52" fill="white" transform="translate(46 43.9849)"/>
</clipPath>
</defs>
</svg>
